<svg version="1.1" id="LOGO_x5F_ESCP_x5F_NEGA" xmlns="http://www.w3.org/2000/svg" xmlns:xlink="http://www.w3.org/1999/xlink"
	 x="0px" y="0px" width="391.1px" height="161.4px" viewBox="0 0 391.1 161.4" style="enable-background:new 0 0 391.1 161.4;"
	 xml:space="preserve">
<style type="text/css">
	.logoh{fill:none;}
	.pathh{fill:#FFFFFF;}
</style>
<rect y="0.1" class="logoh" width="391.1" height="161.3"/>
<g>
	<g>
		<path class="pathh" d="M102.5,41.9c5.7-7.1,10.9-13.4,16.6-20.4c1.1-1.3,2.2-2.5,3.3-3.8c1.9-2,3.8-4.1,5.7-6.2
			c0.2-0.2,0.3-0.4,0.2-0.7c0-0.3-0.1-0.5-0.3-0.7c-0.1-0.1-0.2-0.1-0.3-0.2c-0.3-0.1-0.5-0.1-0.8,0c-0.1,0.1-0.2,0.1-0.3,0.2
			c-1.8,2-3.7,4-5.6,6.1c-8.9,9.5-17.5,18.3-27,28.1c-7.6,7.7-14.8,15.2-21.7,23c-7.8-13.4-15.8-26.8-24.6-41c-1.7-3-4-5.2-5.5-7.2
			C37.6,12.9,32.3,5.6,28,0.4c-0.3-0.4-0.8-0.5-1.2-0.2c-0.4,0.2-0.6,0.8-0.3,1.2c0.5,0.9,0.8,1.7,1.2,2.4c-0.2,0.3-0.2,0.7,0,1
			c6.3,10.6,10.1,18.9,14.8,27.9c0.6,1.2,2.4,3.8,3.1,4.8c3.7,6.6,7.1,13.8,12,21.2c1.3,1.9,3.4,4.9,5.4,7.7c-2.8-0.7-5.8-1.3-9-1.3
			c-2.2,0.1-3.6,0.9-5.1,0.9l0,0c-0.2,0-0.4,0.1-0.5,0.2c-0.5,0-1.2,0-2.1,0c-2.4,0-6.2-0.1-11.2-0.4c-0.6,0-1.3-0.1-1.9-0.1
			c-4.2,0-8.3,0.8-11.8,1.2c-4.3,0.3-8.2,0.9-12.4,0.9H8.4c-0.1,0-0.2,0-0.2,0c-2,0-4.1-0.5-6.3-0.7c-0.5-0.1-1,0.3-1.1,0.8
			c-0.1,0.5,0.3,1,0.8,1.1l0,0c0,0,0.1,0,0.1,0c7.9,1.2,15,2,23.2,2.5c14.3,1.5,26.9,1.7,40.8,3.4c-9.4,11.3-18,23.5-25.5,37.8
			c-1.5,2.7-2,5.5-2.8,7.5c-2.3,6.6-4.5,14.2-5.5,20c-0.1,0.5,0.2,1,0.7,1.1c0.1,0,0.2,0,0.3,0c0.4,0,0.7-0.2,0.9-0.5
			c0.4-0.8,0.7-1.4,1-2c0.4,0,0.7-0.3,0.8-0.6c3.5-9.9,8.1-16.3,12.7-23.6c0.7-0.9,1.9-3.3,2.3-4.3c3.4-5.4,7.7-10.6,11.8-16.9
			c1.9-3.3,2.9-5.9,5-8.8h0c0.1-0.2,0.2-0.4,0.2-0.6c0.8-1.1,2-2.8,3.7-4.9c2.3,3.8,5.7,9.3,10.2,16.9c5.4,9.4,12.4,18.8,17.8,26.7
			c6.1,8.6,11.6,16.3,17.7,24.9c3,4.2,5.5,8.6,8.3,13c0,0.1,0.1,0.1,0.1,0.2l0,0v0c0.2,0.3,0.5,0.4,0.8,0.4c0.2,0,0.3,0,0.5-0.1
			c0.4-0.3,0.6-0.9,0.3-1.3c-9.9-16-18.8-30.4-28.4-46.9C91.1,99.8,84,87.4,76.9,75c0.5,0,1,0,1.5,0c0.8,0,1.6,0,2.4-0.1
			c0.4,0,0.8-0.3,0.9-0.8c0.1-0.4-0.1-0.9-0.5-1.1c-0.3-0.1-0.4-0.2-0.6-0.3c0-0.4-0.3-0.8-0.7-0.9c-0.7-0.2-1.3-0.4-1.9-0.7
			c2.1-2.4,4.4-5.1,7.1-8C91.3,56.3,97.4,48.3,102.5,41.9"/>
	</g>
	<g>
		<g>
			<polygon class="pathh" points="156.2,70.1 182.6,70.1 182.6,62.5 156.2,62.5 156.2,45.9 186.5,45.9 186.5,38.1 147.9,38.1 
				147.9,95.6 187.2,95.6 187.2,87.8 156.2,87.8 			"/>
			<path class="pathh" d="M218.7,63.1c-10.7-2.4-13.8-3.8-13.8-9c0-5.7,4.1-8.6,12.2-8.6c5.7,0,10.6,1.9,13.6,5.3l1.4,1.5l4.3-7.1
				l-0.9-0.8c-5-4.4-11.1-6.7-18.3-6.7c-12.8,0-20.7,6.6-20.7,17.2c0,9.6,6.5,12.9,18.4,15.7c10.7,2.4,15.1,4.3,15.1,9.8
				c0,5.3-4.1,7.9-12.2,7.9c-8.5,0-14.9-3.6-18.1-7l-1.3-1.4L194,87l1,0.8c6.3,5.5,13.9,8.3,22.6,8.3c13.3,0,21-5.9,21-16.3
				C238.6,68.4,229.2,65.4,218.7,63.1z"/>
			<path class="pathh" d="M289.4,78.9c-3.3,6.9-10.3,9.3-15.3,9.3c-10.1,0-18.7-9.8-18.7-21.4c0-10.2,6.5-21.1,18.5-21.1
				c3.1,0,10.8,0.9,14.7,8.8l0.7,1.5l6.7-4.2l-0.6-1.2c-3.7-8-11.7-12.8-21.3-12.8c-17,0-27.1,14.6-27.1,28.7
				c0,14.3,10.7,29.6,26.7,29.6c8.4,0,18.9-4.7,22.7-13.6l0.6-1.3l-7-3.7L289.4,78.9z"/>
			<path class="pathh" d="M332.3,38.1h-23.9v57.5h8.3V75.5h16c10.6,0,17.1-9.8,17.1-18.8C349.9,47.9,342.7,38.1,332.3,38.1z
				 M316.8,45.9h15.3c5.2,0,9.4,4.9,9.4,10.8c0,5.3-3.2,11-9,11h-15.8V45.9z"/>
		</g>
		<g>
			<path class="pathh" d="M157.6,110.1c0.9,0.6,1.3,1.4,1.3,2.5c0,0.7-0.2,1.3-0.6,1.9c-0.4,0.5-1,0.9-1.7,1.1
				c0.9,0.2,1.6,0.6,2.1,1.2c0.5,0.6,0.8,1.4,0.8,2.2c0,1.2-0.5,2.1-1.4,2.7c-0.9,0.7-2.2,1-3.7,1h-6.4v-13.4h6.2
				C155.6,109.2,156.8,109.5,157.6,110.1z M155.3,114.3c0.3-0.3,0.5-0.6,0.5-1.1c0-0.5-0.2-0.8-0.5-1.1c-0.3-0.3-0.8-0.4-1.4-0.4h-3
				v2.9h3C154.5,114.7,155,114.5,155.3,114.3z M155.6,119.8c0.4-0.3,0.6-0.7,0.6-1.2c0-0.5-0.2-0.9-0.6-1.2c-0.4-0.3-1-0.4-1.7-0.4
				h-3v3.2h3C154.7,120.2,155.2,120.1,155.6,119.8z"/>
			<path class="pathh" d="M166.5,119.4c0.5,0.6,1.3,0.8,2.2,0.8c0.9,0,1.6-0.3,2.1-0.8c0.5-0.6,0.8-1.3,0.8-2.3v-7.9h3v7.9
				c0,1.2-0.2,2.2-0.7,3.1c-0.5,0.9-1.2,1.5-2.1,2s-2,0.7-3.2,0.7c-1.2,0-2.3-0.2-3.2-0.7s-1.6-1.1-2.1-2c-0.5-0.9-0.7-1.9-0.7-3.1
				v-7.9h3v7.9C165.7,118.1,166,118.8,166.5,119.4z"/>
			<path class="pathh" d="M185.4,112c-0.8-0.3-1.4-0.4-2-0.4c-0.5,0-0.9,0.1-1.3,0.3c-0.3,0.2-0.5,0.5-0.5,0.8c0,0.5,0.2,0.8,0.7,1.1
				c0.4,0.2,1.1,0.5,2.1,0.8s1.7,0.5,2.3,0.8c0.6,0.3,1.1,0.7,1.5,1.2c0.4,0.5,0.6,1.2,0.6,2.1c0,0.9-0.2,1.6-0.7,2.2
				c-0.5,0.6-1.1,1.1-1.9,1.4c-0.8,0.3-1.7,0.5-2.7,0.5c-1.1,0-2.2-0.2-3.2-0.6c-1.1-0.4-2-0.9-2.7-1.6l1.2-2.5
				c0.7,0.6,1.5,1.1,2.4,1.5c0.9,0.4,1.7,0.6,2.4,0.6c0.6,0,1.1-0.1,1.5-0.3c0.4-0.2,0.5-0.6,0.5-1c0-0.3-0.1-0.6-0.4-0.9
				c-0.2-0.2-0.5-0.4-0.9-0.5c-0.4-0.1-0.9-0.3-1.5-0.5c-0.9-0.3-1.7-0.5-2.3-0.8c-0.6-0.3-1.1-0.6-1.5-1.2
				c-0.4-0.5-0.6-1.2-0.6-2.1c0-0.8,0.2-1.5,0.7-2.1s1-1.1,1.8-1.4c0.8-0.3,1.7-0.5,2.7-0.5c0.9,0,1.8,0.1,2.7,0.4s1.7,0.6,2.4,1.1
				l-1.2,2.5C186.9,112.6,186.1,112.2,185.4,112z"/>
			<path class="pathh" d="M192.2,109.2h3v13.4h-3V109.2z"/>
			<path class="pathh" d="M208.9,109.2h2.9v13.4H209l-6.5-8.6v8.6h-2.9v-13.4h2.8l6.5,8.7V109.2z"/>
			<path class="pathh" d="M216,109.2h10.3v2.5h-7.2v2.9h6.5v2.5h-6.5v3h7.4v2.5H216V109.2z"/>
			<path class="pathh" d="M236.9,112c-0.8-0.3-1.4-0.4-2-0.4c-0.5,0-0.9,0.1-1.3,0.3c-0.3,0.2-0.5,0.5-0.5,0.8c0,0.5,0.2,0.8,0.7,1.1
				c0.4,0.2,1.1,0.5,2.1,0.8s1.7,0.5,2.3,0.8s1.1,0.7,1.5,1.2c0.4,0.5,0.6,1.2,0.6,2.1c0,0.9-0.2,1.6-0.7,2.2
				c-0.5,0.6-1.1,1.1-1.9,1.4c-0.8,0.3-1.7,0.5-2.7,0.5c-1.1,0-2.2-0.2-3.2-0.6c-1.1-0.4-2-0.9-2.7-1.6l1.2-2.5
				c0.7,0.6,1.5,1.1,2.4,1.5c0.9,0.4,1.7,0.6,2.4,0.6c0.6,0,1.1-0.1,1.5-0.3c0.4-0.2,0.5-0.6,0.5-1c0-0.3-0.1-0.6-0.4-0.9
				c-0.2-0.2-0.5-0.4-0.9-0.5c-0.4-0.1-0.9-0.3-1.5-0.5c-0.9-0.3-1.7-0.5-2.3-0.8c-0.6-0.3-1.1-0.6-1.5-1.2
				c-0.4-0.5-0.6-1.2-0.6-2.1c0-0.8,0.2-1.5,0.7-2.1s1-1.1,1.8-1.4c0.8-0.3,1.7-0.5,2.7-0.5c0.9,0,1.8,0.1,2.7,0.4s1.7,0.6,2.4,1.1
				l-1.2,2.5C238.4,112.6,237.6,112.2,236.9,112z"/>
			<path class="pathh" d="M250.4,112c-0.8-0.3-1.4-0.4-2-0.4c-0.5,0-0.9,0.1-1.3,0.3s-0.5,0.5-0.5,0.8c0,0.5,0.2,0.8,0.7,1.1
				c0.4,0.2,1.1,0.5,2.1,0.8s1.7,0.5,2.3,0.8s1.1,0.7,1.5,1.2c0.4,0.5,0.6,1.2,0.6,2.1c0,0.9-0.2,1.6-0.7,2.2
				c-0.5,0.6-1.1,1.1-1.9,1.4c-0.8,0.3-1.7,0.5-2.7,0.5c-1.1,0-2.2-0.2-3.2-0.6c-1.1-0.4-2-0.9-2.7-1.6l1.2-2.5
				c0.7,0.6,1.5,1.1,2.4,1.5c0.9,0.4,1.7,0.6,2.4,0.6c0.6,0,1.1-0.1,1.5-0.3c0.4-0.2,0.5-0.6,0.5-1c0-0.3-0.1-0.6-0.4-0.9
				c-0.2-0.2-0.5-0.4-0.9-0.5c-0.4-0.1-0.9-0.3-1.5-0.5c-0.9-0.3-1.7-0.5-2.3-0.8c-0.6-0.3-1.1-0.6-1.5-1.2
				c-0.4-0.5-0.6-1.2-0.6-2.1c0-0.8,0.2-1.5,0.7-2.1s1-1.1,1.8-1.4c0.8-0.3,1.7-0.5,2.7-0.5c0.9,0,1.8,0.1,2.7,0.4s1.7,0.6,2.4,1.1
				l-1.2,2.5C251.9,112.6,251.2,112.2,250.4,112z"/>
			<path class="pathh" d="M269.8,112c-0.8-0.3-1.4-0.4-2-0.4c-0.5,0-0.9,0.1-1.3,0.3c-0.3,0.2-0.5,0.5-0.5,0.8c0,0.5,0.2,0.8,0.7,1.1
				c0.4,0.2,1.1,0.5,2.1,0.8s1.7,0.5,2.3,0.8s1.1,0.7,1.5,1.2c0.4,0.5,0.6,1.2,0.6,2.1c0,0.9-0.2,1.6-0.7,2.2
				c-0.5,0.6-1.1,1.1-1.9,1.4c-0.8,0.3-1.7,0.5-2.7,0.5c-1.1,0-2.2-0.2-3.2-0.6c-1.1-0.4-2-0.9-2.7-1.6l1.2-2.5
				c0.7,0.6,1.5,1.1,2.4,1.5c0.9,0.4,1.7,0.6,2.4,0.6c0.6,0,1.1-0.1,1.5-0.3c0.4-0.2,0.5-0.6,0.5-1c0-0.3-0.1-0.6-0.4-0.9
				c-0.2-0.2-0.5-0.4-0.9-0.5c-0.4-0.1-0.9-0.3-1.5-0.5c-0.9-0.3-1.7-0.5-2.3-0.8c-0.6-0.3-1.1-0.6-1.5-1.2
				c-0.4-0.5-0.6-1.2-0.6-2.1c0-0.8,0.2-1.5,0.7-2.1s1-1.1,1.8-1.4c0.8-0.3,1.7-0.5,2.7-0.5c0.9,0,1.8,0.1,2.7,0.4s1.7,0.6,2.4,1.1
				L272,113C271.3,112.6,270.6,112.2,269.8,112z"/>
			<path class="pathh" d="M284.8,112.1c-0.6-0.3-1.3-0.5-1.9-0.5c-0.8,0-1.5,0.2-2.1,0.6c-0.6,0.4-1.1,0.9-1.5,1.5
				c-0.4,0.6-0.5,1.4-0.5,2.1c0,0.8,0.2,1.5,0.5,2.1c0.4,0.6,0.9,1.2,1.5,1.5c0.6,0.4,1.3,0.6,2.1,0.6c0.6,0,1.2-0.1,1.8-0.4
				c0.6-0.3,1.2-0.7,1.7-1.2l1.8,1.9c-0.7,0.7-1.6,1.3-2.5,1.8c-1,0.4-1.9,0.7-2.9,0.7c-1.3,0-2.5-0.3-3.6-0.9
				c-1.1-0.6-1.9-1.4-2.5-2.5c-0.6-1.1-0.9-2.2-0.9-3.6c0-1.3,0.3-2.5,0.9-3.5c0.6-1,1.5-1.9,2.6-2.5c1.1-0.6,2.3-0.9,3.6-0.9
				c1,0,1.9,0.2,2.9,0.6c1,0.4,1.8,1,2.4,1.6l-1.8,2.2C286,112.9,285.4,112.5,284.8,112.1z"/>
			<path class="pathh" d="M291.3,109.2h3v5.6h6.1v-5.6h3v13.4h-3v-5.3h-6.1v5.3h-3V109.2z"/>
			<path class="pathh" d="M317.7,109.9c1.1,0.6,2,1.4,2.6,2.5c0.6,1.1,1,2.2,1,3.5c0,1.3-0.3,2.5-1,3.5c-0.6,1.1-1.5,1.9-2.6,2.5
				c-1.1,0.6-2.3,0.9-3.7,0.9c-1.3,0-2.6-0.3-3.7-0.9c-1.1-0.6-2-1.4-2.6-2.5c-0.6-1.1-1-2.2-1-3.5c0-1.3,0.3-2.5,1-3.5
				c0.6-1.1,1.5-1.9,2.6-2.5c1.1-0.6,2.3-0.9,3.7-0.9C315.4,109,316.6,109.3,317.7,109.9z M312,112.2c-0.6,0.4-1.1,0.9-1.5,1.5
				c-0.4,0.7-0.6,1.4-0.6,2.2c0,0.8,0.2,1.5,0.6,2.2c0.4,0.7,0.9,1.2,1.5,1.6c0.6,0.4,1.3,0.6,2.1,0.6c0.7,0,1.4-0.2,2.1-0.6
				c0.6-0.4,1.1-0.9,1.5-1.6c0.4-0.7,0.5-1.4,0.5-2.2c0-0.8-0.2-1.5-0.5-2.2c-0.4-0.7-0.9-1.2-1.5-1.5c-0.6-0.4-1.3-0.6-2.1-0.6
				C313.3,111.7,312.7,111.9,312,112.2z"/>
			<path class="pathh" d="M334.2,109.9c1.1,0.6,2,1.4,2.6,2.5c0.6,1.1,1,2.2,1,3.5c0,1.3-0.3,2.5-1,3.5c-0.6,1.1-1.5,1.9-2.6,2.5
				c-1.1,0.6-2.3,0.9-3.7,0.9c-1.3,0-2.6-0.3-3.7-0.9c-1.1-0.6-2-1.4-2.6-2.5c-0.6-1.1-1-2.2-1-3.5c0-1.3,0.3-2.5,1-3.5
				c0.6-1.1,1.5-1.9,2.6-2.5c1.1-0.6,2.3-0.9,3.7-0.9C331.9,109,333.1,109.3,334.2,109.9z M328.5,112.2c-0.6,0.4-1.1,0.9-1.5,1.5
				c-0.4,0.7-0.6,1.4-0.6,2.2c0,0.8,0.2,1.5,0.6,2.2c0.4,0.7,0.9,1.2,1.5,1.6c0.6,0.4,1.3,0.6,2.1,0.6c0.7,0,1.4-0.2,2.1-0.6
				c0.6-0.4,1.1-0.9,1.5-1.6c0.4-0.7,0.5-1.4,0.5-2.2c0-0.8-0.2-1.5-0.5-2.2c-0.4-0.7-0.9-1.2-1.5-1.5c-0.6-0.4-1.3-0.6-2.1-0.6
				C329.8,111.7,329.1,111.9,328.5,112.2z"/>
			<path class="pathh" d="M341.1,109.2h3V120h5.8v2.7h-8.8V109.2z"/>
		</g>
	</g>
</g>
</svg>
