<svg xmlns="http://www.w3.org/2000/svg" width="62" height="60.5" viewBox="0 0 124 121"><g><g><path fill="#fff" d="M14.192 51.673H.465V.876h13.727zm55.482-38.86l-12.173 6.748c-2.457-4.207-6.213-6.42-11.127-6.42-7.008 0-12.21 5.369-12.21 13.134 0 8.672 5.997 13.133 12.245 13.133 4.805 0 8.67-2.176 11.415-6.386l11.27 7.91c-4.767 7.184-12.498 11.684-22.504 11.684-15.641 0-26.694-10.884-26.694-26.34 0-15.46 11.053-26.343 26.694-26.343 9.899 0 18.678 4.753 23.084 12.88zm53.316 38.86h-13.365L88.783 23.118v28.555H75.056V.876h13.366l20.843 28.553V.876h13.725zM14.895 60.356l-3.612 2.003c-.729-1.252-1.844-1.907-3.302-1.907-2.08 0-3.624 1.594-3.624 3.897 0 2.574 1.78 3.898 3.633 3.898 1.426 0 2.573-.646 3.389-1.896l3.344 2.348c-1.416 2.13-3.71 3.466-6.679 3.466-4.642 0-7.92-3.23-7.92-7.818 0-4.586 3.28-7.816 7.92-7.816 2.938.001 5.543 1.412 6.851 3.825zm14.106 1.474c0 2.327-1.34 3.995-3.88 4.521l4.084 5.536h-4.803l-3.612-5.352h-.224v5.352h-4.073V56.81h6.689c3.815 0 5.819 1.984 5.819 5.019zm-8.435-1.345v2.68h2.572c1.008 0 1.747-.42 1.747-1.335s-.74-1.345-1.747-1.345zm22.06 11.402H30.898V56.81h11.728v3.641h-7.653v1.993h7.118v3.637h-7.118v2.165h7.653zm17.162 0h-4.32l-.997-2.876h-5.607l-.986 2.876h-4.255l5.682-15.076h4.803zm-9.66-6.526h3.077l-1.532-4.459zm23.949-5.005l-3.613 2.003c-.728-1.252-1.843-1.907-3.3-1.907-2.08 0-3.625 1.594-3.625 3.897 0 2.574 1.78 3.898 3.634 3.898 1.425 0 2.573-.646 3.388-1.896l3.344 2.348c-1.414 2.13-3.709 3.466-6.678 3.466-4.642 0-7.92-3.23-7.92-7.818 0-4.586 3.28-7.816 7.92-7.816 2.937.001 5.541 1.412 6.85 3.825zm9.292.224v11.307h-4.072V60.58h-4.268V56.81h12.607v3.769zm9.733 11.307H89.03V56.81h4.072zm11.504 0h-4.803L94.335 56.81h4.32l3.58 10.8 3.582-10.8h4.255zm6.677 0V56.81h11.727v3.641h-7.653v1.993h7.118v3.637h-7.118v2.165h7.653v3.64zM8.445 77.292c4.581 0 6.616 1.885 6.616 4.92 0 1.664-.938 2.937-2.266 3.61 1.487.563 2.608 2.007 2.608 3.685 0 3.033-2.01 4.919-6.518 4.919H.795V77.292zm-3.023 3.794v2.851h2.912c1.28 0 1.926-.48 1.926-1.433 0-.94-.647-1.418-1.913-1.418zm0 9.557l3.204.013c1.328 0 2.01-.49 2.01-1.483 0-.965-.682-1.467-2.01-1.467H5.422zm19.337 4.1c-4.898 0-7.554-2.643-7.554-7.306V77.292h4.642v10.01c0 1.97 1.12 2.986 2.912 2.986 1.792 0 2.913-1.016 2.913-2.986v-10.01h4.642v10.145c0 4.663-2.657 7.305-7.555 7.305zM47.093 82.59c-1.12-.636-2.816-1.432-4.922-1.432-1.243 0-2.194.343-2.194 1.114 0 .968 1.742 1.064 3.485 1.408l.548.11c3.521.682 5.311 2.386 5.311 5.016 0 4.332-3.642 5.937-7.273 5.937-3.057 0-5.836-.733-7.785-2.13l2.266-3.792c1.353.82 2.984 1.761 5.58 1.761 1.242 0 2.156-.343 2.156-1.187 0-.894-1.06-1.052-3.18-1.419l-.646-.11c-3.924-.673-5.557-2.374-5.471-5.412.085-3.279 2.827-5.47 6.92-5.47 2.229 0 4.24.232 7.2 1.801zM56 94.425h-4.63V77.292H56zm18.728 0H70.22l-7.03-9.631v9.631h-4.631V77.292h4.508l7.03 9.632v-9.632h4.63zm15.864 0H77.263V77.292h13.33v4.136h-8.701v2.265h8.09v4.136h-8.09v2.46h8.7zm14.536-11.834c-1.12-.636-2.815-1.432-4.921-1.432-1.243 0-2.194.343-2.194 1.114 0 .968 1.741 1.064 3.485 1.408l.547.11c3.522.682 5.312 2.386 5.312 5.016 0 4.332-3.642 5.937-7.273 5.937-3.058 0-5.836-.733-7.785-2.13l2.265-3.792c1.354.82 2.985 1.761 5.58 1.761 1.243 0 2.158-.343 2.158-1.187 0-.894-1.06-1.052-3.18-1.419l-.647-.11c-3.924-.673-5.557-2.374-5.471-5.412.085-3.279 2.827-5.47 6.92-5.47 2.228 0 4.24.232 7.2 1.801zm15.79 0c-1.12-.636-2.814-1.432-4.921-1.432-1.243 0-2.194.343-2.194 1.114 0 .968 1.742 1.064 3.485 1.408l.548.11c3.522.682 5.312 2.386 5.312 5.016 0 4.332-3.643 5.937-7.273 5.937-3.058 0-5.837-.733-7.786-2.13l2.266-3.792c1.353.82 2.984 1.761 5.58 1.761 1.243 0 2.157-.343 2.157-1.187 0-.894-1.06-1.052-3.18-1.419l-.647-.11c-3.924-.673-5.556-2.374-5.471-5.412.086-3.279 2.827-5.47 6.92-5.47 2.229 0 4.24.232 7.201 1.801zM15.79 106.421c-1.314-.747-3.299-1.68-5.769-1.68-1.456 0-2.57.403-2.57 1.306 0 1.132 2.043 1.248 4.084 1.648l.643.132c4.128.803 6.227 2.797 6.227 5.88 0 5.078-4.27 6.958-8.526 6.958-3.586 0-6.84-.863-9.127-2.497l2.656-4.449c1.586.96 3.499 2.067 6.541 2.067 1.457 0 2.527-.403 2.527-1.39 0-1.047-1.242-1.234-3.728-1.666l-.757-.129c-4.598-.789-6.512-2.783-6.412-6.339.1-3.846 3.315-6.414 8.113-6.414 2.613 0 4.97.274 8.44 2.111zm23.724-1.492l-4.813 2.666c-.971-1.663-2.457-2.54-4.4-2.54-2.769 0-4.827 2.124-4.827 5.194 0 3.427 2.371 5.192 4.84 5.192 1.9 0 3.43-.863 4.514-2.524l4.457 3.125c-1.886 2.842-4.942 4.62-8.898 4.62-6.184 0-10.554-4.304-10.554-10.416 0-6.111 4.371-10.412 10.554-10.412 3.914.003 7.383 1.881 9.127 5.095zm7.554 2.71h7.4v-7.432h5.427v20.085h-5.428v-7.649h-7.399v7.649H41.64v-20.085h5.427zm36.219 2.612c0 5.996-4.385 10.415-10.57 10.415-6.184 0-10.568-4.42-10.568-10.415 0-5.997 4.384-10.414 10.568-10.414 6.185 0 10.57 4.417 10.57 10.414zm-15.496 0c0 3.07 2.013 5.193 4.926 5.193 2.915 0 4.928-2.123 4.928-5.193 0-3.072-2.013-5.193-4.928-5.193-2.913 0-4.926 2.121-4.926 5.193zm38.175 0c0 5.996-4.384 10.415-10.568 10.415-6.185 0-10.57-4.42-10.57-10.415 0-5.997 4.385-10.414 10.57-10.414 6.184 0 10.568 4.417 10.568 10.414zm-15.495 0c0 3.07 2.014 5.193 4.927 5.193 2.914 0 4.927-2.123 4.927-5.193 0-3.072-2.015-5.193-4.927-5.193-2.914 0-4.927 2.121-4.927 5.193zm17.751 10.042v-20.086h5.428v15.061h9.626v5.025z"/></g></g></svg>