<?xml version="1.0" encoding="UTF-8"?>
<svg width="617px" height="617px" viewBox="0 0 617 617" version="1.1" xmlns="http://www.w3.org/2000/svg" xmlns:xlink="http://www.w3.org/1999/xlink">
    <!-- Generator: Sketch 63.1 (92452) - https://sketch.com -->
    <title>Combined Shape</title>
    <desc>Created with Sketch.</desc>
    <g id="Desktop" stroke="none" stroke-width="1" fill="none" fill-rule="evenodd">
        <path d="M617,-1.14164322e-09 L617,617 L-1.2117539e-08,617 L-1.2117539e-08,-1.14164322e-09 L617,-1.14164322e-09 Z M506.51775,505.153712 C502.131393,505.153712 497.936673,508.759367 497.936673,515.182827 C497.936673,520.470648 501.308064,524.46668 506.006718,524.46668 C508.840207,524.46668 510.875128,523.153316 511.926922,521.481205 L512.039733,521.293987 L512.117807,521.293987 L512.117807,523.366529 C512.117807,528.185899 509.534257,530.024215 506.006718,530.024215 C503.78104,530.024215 501.905723,529.393558 500.652339,528.627113 L500.449247,528.4982 L499.583331,531.159855 C501.116427,532.18193 503.621903,532.728457 505.893155,532.728457 C508.277971,532.728457 510.939595,532.139344 512.820476,530.457178 C514.571997,528.829275 515.472684,526.317293 515.52897,522.181462 L515.531784,521.762438 L515.531784,510.753834 C515.531784,508.584585 515.562975,507.107782 515.660447,505.838012 L515.680835,505.586674 L512.628839,505.586674 L512.508179,508.40448 L512.430105,508.40448 C511.571287,506.835878 509.803969,505.153712 506.51775,505.153712 Z M358.524341,505.153712 C354.137985,505.153712 349.950362,508.759367 349.950362,515.182827 C349.950362,520.470648 353.314655,524.46668 358.020407,524.46668 C360.847052,524.46668 362.881728,523.153316 363.933514,521.481205 L364.046325,521.293987 L364.124399,521.293987 L364.124399,523.366529 C364.124399,528.185899 361.540849,530.024215 358.020407,530.024215 C355.788005,530.024215 353.912334,529.393558 352.658931,528.627113 L352.455838,528.4982 L351.589923,531.159855 C353.123019,532.18193 355.628494,532.728457 357.899747,532.728457 C360.29166,532.728457 362.953284,532.139344 364.834165,530.457178 C366.578817,528.829275 367.472636,526.317293 367.528486,522.181462 L367.531278,521.762438 L367.531786,510.329073 C367.536565,508.388598 367.575647,507.023131 367.672807,505.838012 L367.694524,505.586674 L364.635431,505.586674 L364.521868,508.40448 L364.443794,508.40448 C363.577879,506.835878 361.817658,505.153712 358.524341,505.153712 Z M102.951628,505.153712 C98.9201541,505.153712 96.4146785,507.659216 96.4146785,510.718345 C96.4146785,512.989624 98.0187507,514.82794 101.468216,516.084241 C103.973691,517.021144 104.953169,517.922557 104.953169,519.569235 C104.953169,521.173325 103.774957,522.38704 101.312067,522.38704 C99.6887895,522.38704 97.9963525,521.7646 96.9211712,521.164719 L96.7269757,521.052664 L95.9036466,523.643341 C97.2380076,524.424093 99.1543771,524.97062 101.233993,524.97062 C105.655838,524.97062 108.281974,522.621266 108.281974,519.256934 C108.281974,516.396542 106.557241,514.749865 103.306511,513.53615 C100.836524,512.59215 99.7434833,511.889473 99.7434833,510.285382 C99.7434833,508.872931 100.836524,507.701803 102.873553,507.701803 C104.536912,507.701803 105.848187,508.286519 106.618023,508.716273 L106.755976,508.794856 L107.579305,506.32484 C106.557241,505.657652 104.875095,505.153712 102.951628,505.153712 Z M441.467652,505.153712 C437.436179,505.153712 434.930703,507.659216 434.930703,510.718345 C434.930703,512.989624 436.534775,514.82794 439.977143,516.084241 C442.489716,517.021144 443.469194,517.922557 443.469194,519.569235 C443.469194,521.173325 442.290981,522.38704 439.828092,522.38704 C438.204814,522.38704 436.512377,521.7646 435.437196,521.164719 L435.243,521.052664 L434.419671,523.643341 C435.754032,524.424093 437.670401,524.97062 439.74292,524.97062 C444.171862,524.97062 446.797998,522.621266 446.797998,519.256934 C446.797998,516.396542 445.073266,514.749865 441.822535,513.53615 C439.352548,512.59215 438.259508,511.889473 438.259508,510.285382 C438.259508,508.872931 439.352548,507.701803 441.389578,507.701803 C443.046256,507.701803 444.363426,508.286519 445.133978,508.716273 L445.272,508.794856 L446.09533,506.32484 C445.073266,505.657652 443.391119,505.153712 441.467652,505.153712 Z M66.65417,505.153712 C64.4018444,505.153712 62.2128282,505.748827 60.6551475,506.640093 L60.386932,506.800389 L61.1747728,509.107156 C62.5020361,508.205743 64.347429,507.701803 66.1502358,507.701803 C69.9374852,507.660184 70.4370604,510.39109 70.4578121,511.979307 L70.4585183,512.08821 L70.4585183,512.478586 C63.1337283,512.435999 59.0596687,514.948602 59.0596687,519.526648 C59.0596687,522.273476 61.0186242,524.97062 64.8513632,524.97062 C67.4554175,524.97062 69.4802868,523.739837 70.5330224,522.317698 L70.6501553,522.152814 L70.7708156,522.152814 L71.0831128,524.544755 L74.1776947,524.544755 C74.0010417,523.390188 73.9197252,521.994473 73.9038358,520.542054 L73.9008858,519.995099 L73.9008858,512.911549 C73.9008858,509.107156 72.4955481,505.153712 66.65417,505.153712 Z M179.514138,505.153712 C173.324974,505.153712 169.328989,509.419457 169.328989,515.260903 C169.328989,521.09525 173.048165,524.97062 178.768883,524.97062 C181.206159,524.97062 183.136912,524.366681 184.089063,523.935255 L184.212792,523.877567 L183.623686,521.293987 C182.644208,521.719852 181.352433,522.195401 179.393477,522.195401 C175.631715,522.195401 172.813942,519.491159 172.813942,515.097654 C172.813942,511.14421 175.163269,507.893442 179.514138,507.893442 C181.277464,507.893442 182.523021,508.305167 183.35023,508.713382 L183.510123,508.794856 L184.290866,506.168689 C183.353974,505.657652 181.551168,505.153712 179.514138,505.153712 Z M255.019096,505.586674 L251.576728,505.586674 L251.576728,516.666256 C251.576728,523.288454 255.139756,524.97062 258.113678,524.97062 C261.376314,524.97062 263.389288,523.102753 264.300554,521.599196 L264.388013,521.450137 L264.45899,521.450137 L264.657725,524.544755 L267.716818,524.544755 C267.609565,523.219842 267.569607,521.709862 267.562052,520.014815 L267.560669,519.370498 L267.560669,505.586674 L264.111204,505.586674 L264.111204,517.177294 C264.111204,517.844482 263.990544,518.469084 263.798907,518.937535 C263.167215,520.506137 261.563143,522.110228 259.256402,522.110228 C256.2355,522.110228 255.074618,519.763195 255.02105,516.29724 L255.019096,516.041655 L255.019096,505.586674 Z M423.688002,505.153712 C418.478316,505.153712 414.290694,508.872931 414.290694,515.218316 C414.290694,521.112505 418.150074,524.84048 423.113469,524.967279 L423.375705,524.97062 L423.418291,524.97062 C427.91821,524.97062 432.815599,521.918589 432.815599,514.870527 C432.815599,509.107156 429.139008,505.153712 423.688002,505.153712 Z M569.566306,505.153712 C565.534833,505.153712 563.022259,507.659216 563.022259,510.718345 C563.022259,512.989624 564.633429,514.82794 568.075797,516.084241 C570.581272,517.021144 571.567848,517.922557 571.567848,519.569235 C571.567848,521.173325 570.389635,522.38704 567.919648,522.38704 C566.30305,522.38704 564.611006,521.7646 563.535848,521.164719 L563.341654,521.052664 L562.518325,523.643341 C563.845588,524.424093 565.769056,524.97062 567.841574,524.97062 C572.270516,524.97062 574.896652,522.621266 574.896652,519.256934 C574.896652,516.396542 573.17192,514.749865 569.921189,513.53615 C567.451202,512.59215 566.351064,511.889473 566.351064,510.285382 C566.351064,508.872931 567.451202,507.701803 569.488232,507.701803 C571.14491,507.701803 572.455793,508.286519 573.225605,508.716273 L573.363557,508.794856 L574.186886,506.32484 C573.17192,505.657652 571.489773,505.153712 569.566306,505.153712 Z M553.199091,505.111125 C547.677108,505.111125 544.263131,509.618194 544.263131,515.374467 C544.263131,521.052664 547.790671,524.935131 553.589463,524.935131 C556.474818,524.935131 558.535448,524.324698 559.771354,523.793322 L559.934775,523.721416 L559.303083,521.293987 C558.053894,521.797927 556.527896,522.23089 554.057909,522.23089 C550.687257,522.23089 547.799761,520.393516 547.607616,515.939161 L547.599034,515.651279 L560.871667,515.686767 C560.956839,515.296391 560.992327,514.749865 560.992327,514.047188 C560.992327,510.555097 559.388255,505.111125 553.199091,505.111125 Z M527.313908,505.111125 C521.791925,505.111125 518.377948,509.618194 518.377948,515.374467 C518.377948,521.052664 521.905487,524.935131 527.704279,524.935131 C530.589634,524.935131 532.650265,524.324698 533.886171,523.793322 L534.049592,523.721416 L533.424997,521.293987 C532.16871,521.797927 530.642713,522.23089 528.172725,522.23089 C524.795124,522.23089 521.914288,520.393516 521.722424,515.939161 L521.71385,515.651279 L534.986483,515.686767 C535.064558,515.296391 535.107144,514.749865 535.107144,514.047188 C535.107144,510.555097 533.503071,505.111125 527.313908,505.111125 Z M194.12823,505.111125 C188.599149,505.111125 185.19227,509.618194 185.19227,515.374467 C185.19227,521.052664 188.719809,524.935131 194.518601,524.935131 C197.403956,524.935131 199.464587,524.324698 200.700493,523.793322 L200.863913,523.721416 L200.239319,521.293987 C198.983032,521.797927 197.457034,522.23089 194.987047,522.23089 C191.609446,522.23089 188.721805,520.393516 188.529657,515.939161 L188.521074,515.651279 L201.800805,515.686767 C201.87888,515.296391 201.921466,514.749865 201.921466,514.047188 C201.921466,510.555097 200.310296,505.111125 194.12823,505.111125 Z M142.542402,498.141138 L138.78064,498.141138 L138.78064,524.544755 L141.995882,524.544755 L141.995469,512.539273 C141.990971,508.75636 141.948151,505.872299 141.792236,502.924991 L141.761659,502.371395 L141.875221,502.335906 C143.065855,504.951426 144.644149,507.704119 146.314885,510.408106 L146.77261,511.14421 L155.154952,524.544755 L158.604417,524.544755 L158.604417,498.141138 L155.389175,498.141138 L155.389175,509.227818 C155.389175,513.030317 155.457187,516.0785 155.725935,519.336077 L155.786644,520.037686 L155.665984,520.073175 C154.545645,517.544193 153.12292,515.015211 151.403392,512.207101 L150.96733,511.499097 L142.542402,498.141138 Z M281.259163,505.153712 C278.233428,505.153712 276.083167,506.798559 275.090476,508.498235 L274.991925,508.674194 L274.91385,508.674194 L274.722213,505.586674 L271.66312,505.586674 C271.772811,507.006223 271.812112,508.431639 271.818351,510.182878 L271.819268,510.718345 L271.819268,524.544755 L275.268733,524.544755 L275.268733,513.103188 C275.268733,512.556661 275.346808,511.932059 275.502956,511.499097 C276.127551,509.582705 277.894869,507.971517 280.123536,507.971517 C283.294981,507.971517 284.453238,510.430605 284.507852,513.391266 L284.509893,513.614225 L284.509893,524.544755 L287.959358,524.544755 L287.959358,513.223849 C287.959358,506.722314 283.885299,505.153712 281.259163,505.153712 Z M402.700207,498.141138 L399.250742,498.141138 L399.250742,524.544755 L413.978396,524.544755 L413.978396,521.684363 L402.700207,521.684363 L402.700207,498.141138 Z M86.4353618,505.153712 C84.198651,505.153712 82.1476467,506.652645 81.2376317,509.054255 L81.1476015,509.305893 L81.0269412,509.305893 L80.8707926,505.586674 L77.854285,505.586674 C77.9628793,507.170891 78.0024843,508.88159 78.0093193,510.837779 L78.0104337,511.499097 L77.9749453,524.544755 L81.4173128,524.544755 L81.4173128,514.437564 C81.4173128,513.848451 81.4598988,513.301925 81.5379731,512.790887 C82.0064189,510.242796 83.7311515,508.40448 86.1585528,508.40448 C86.5333095,508.40448 86.8353862,508.427192 87.1410968,508.458082 L87.3722535,508.482555 L87.3722535,505.267276 C87.0599563,505.1892 86.7831473,505.153712 86.4353618,505.153712 Z M340.47498,505.153712 C337.442384,505.153712 335.291894,506.798559 334.305607,508.498235 L334.207742,508.674194 L334.129668,508.674194 L333.930933,505.586674 L330.878937,505.586674 C330.982176,507.006223 331.026756,508.431639 331.034009,510.182878 L331.035086,510.718345 L331.035086,524.544755 L334.477453,524.544755 L334.477453,513.103188 C334.477453,512.556661 334.555527,511.932059 334.718774,511.499097 C335.343368,509.582705 337.103589,507.971517 339.339353,507.971517 C342.510798,507.971517 343.669056,510.430605 343.723669,513.391266 L343.72571,513.614225 L343.72571,524.544755 L347.168078,524.544755 L347.168078,513.223849 C347.168078,506.722314 343.101116,505.153712 340.47498,505.153712 Z M541.374382,496.735784 L537.924917,496.735784 L537.924917,524.544755 L541.374382,524.544755 L541.374382,496.735784 Z M235.670862,498.141138 L232.263983,498.141138 L232.263983,524.544755 L235.670862,524.544755 L235.670862,514.473053 L238.218923,511.577172 L246.870977,524.544755 L250.909548,524.544755 L240.610836,509.341382 L250.164293,498.141138 L245.934085,498.141138 L237.86404,508.049592 C237.330296,508.742332 236.773839,509.480498 236.212839,510.271357 L235.791522,510.874495 L235.670862,510.874495 L235.670862,498.141138 Z M92.9297251,505.586674 L89.48026,505.586674 L89.48026,524.544755 L92.9297251,524.544755 L92.9297251,505.586674 Z M48.8319337,497.942401 C46.2634663,497.942401 44.2065298,498.148264 42.6084895,498.437173 L42.2949845,498.496025 L42.2949845,524.544755 L45.7018636,524.544755 L45.7018636,513.969113 C46.4826067,514.160752 47.4265961,514.203338 48.4415622,514.203338 C51.7703669,514.203338 54.7088002,513.223849 56.511607,511.30036 C57.8814563,509.930495 58.5841251,508.049592 58.5841251,505.657652 C58.5841251,503.315395 57.6898194,501.391906 56.2347981,500.135605 C54.6733118,498.730251 52.2033245,497.942401 48.8319337,497.942401 Z M326.762291,505.586674 L323.312826,505.586674 L323.312826,524.544755 L326.762291,524.544755 L326.762291,505.586674 Z M467.828379,498.141138 L463.711734,498.141138 L454.740285,524.544755 L458.267825,524.544755 L461.014621,516.240392 L470.369343,516.240392 L473.194214,524.544755 L476.835316,524.544755 L467.828379,498.141138 Z M166.433142,505.586674 L162.983677,505.586674 L162.983677,524.544755 L166.433142,524.544755 L166.433142,505.586674 Z M488.468388,505.153712 C485.435793,505.153712 483.285303,506.798559 482.292604,508.498235 L482.194053,508.674194 L482.115978,508.674194 L481.924341,505.586674 L478.865248,505.586674 C478.974939,507.006223 479.01424,508.431639 479.020479,510.182878 L479.021397,510.718345 L479.021397,524.544755 L482.470862,524.544755 L482.470862,513.103188 C482.470862,512.556661 482.548936,511.932059 482.705085,511.499097 C483.329679,509.582705 485.096998,507.971517 487.332762,507.971517 C490.497282,507.971517 491.662126,510.430605 491.717066,513.391266 L491.719119,513.614225 L491.719119,524.544755 L495.161486,524.544755 L495.161486,513.223849 C495.161486,506.722314 491.087427,505.153712 488.468388,505.153712 Z M312.943138,505.153712 C311.140331,505.153712 309.926631,505.622163 308.791004,506.48099 C308.081238,507.016547 307.371471,507.71635 306.805684,508.660388 L306.640412,508.951006 L306.562338,508.951006 C305.739008,506.722314 303.780053,505.153712 301.231991,505.153712 C298.16509,505.153712 296.418032,506.725602 295.349686,508.458882 L295.241562,508.638705 L295.120902,508.638705 L294.964753,505.586674 L291.948246,505.586674 C292.019222,507.006223 292.090199,508.431639 292.102517,510.182878 L292.104394,510.718345 L292.104394,524.544755 L295.475785,524.544755 L295.475785,513.103188 C295.475785,512.514075 295.553859,511.932059 295.752594,511.421022 C296.299114,509.696269 297.903186,507.971517 300.018291,507.971517 C302.571478,507.971517 303.90366,510.011024 303.9757,512.929024 L303.978788,513.181263 L303.978788,524.544755 L307.343081,524.544755 L307.343081,512.790887 C307.343081,512.201774 307.463741,511.577172 307.61989,511.066134 C308.244484,509.419457 309.734994,507.971517 311.729437,507.971517 C314.397039,507.971517 315.772668,510.017162 315.843223,513.518771 L315.846083,513.805865 L315.846083,524.544755 L319.210376,524.544755 L319.210376,513.38 C319.210376,506.800389 315.4912,505.153712 312.943138,505.153712 Z M70.3071805,514.864617 L70.5330438,514.868397 L70.5330438,518.154654 C70.5330438,518.509541 70.4975555,518.899917 70.3768952,519.254804 C69.830375,520.858895 68.2263028,522.427497 65.7208271,522.427497 C63.9960946,522.427497 62.5055849,521.405422 62.5055849,519.134143 C62.5055849,515.524087 66.6091765,514.817935 70.3071805,514.864617 Z M423.5716,507.735872 C427.64566,507.735872 429.249732,511.77449 429.249732,514.982671 C429.249732,519.199336 426.890531,522.253385 423.702594,522.381436 L423.493526,522.38562 L423.458037,522.38562 C420.122135,522.38562 417.772808,519.255514 417.772808,515.096235 C417.772808,511.497677 419.540127,507.735872 423.5716,507.735872 Z M359.07583,507.815367 C361.623892,507.815367 363.27055,509.462044 363.895144,511.499097 C364.025268,511.889473 364.0716,512.309423 364.08343,512.754839 L364.086781,513.025112 L364.086781,516.432031 C364.086781,517.056632 364.015805,517.723821 363.81707,518.270347 C363.114401,520.506137 361.190934,521.840514 359.040342,521.840514 C355.356654,521.840514 353.433186,518.70331 353.433186,515.019579 C353.433186,510.597683 355.789611,507.815367 359.07583,507.815367 Z M507.066399,507.815367 C509.614461,507.815367 511.254022,509.462044 511.885714,511.499097 C512.015838,511.889473 512.06217,512.309423 512.073999,512.754839 L512.077351,513.025112 L512.077351,516.432031 C512.077351,517.056632 511.999276,517.723821 511.807639,518.270347 C511.097873,520.506137 509.181504,521.840514 507.023813,521.840514 C503.347223,521.840514 501.423756,518.70331 501.423756,515.019579 C501.423756,510.597683 503.773083,507.815367 507.066399,507.815367 Z M465.710436,501.154132 C466.052011,502.489395 466.39902,503.857264 466.846561,505.333817 L467.044797,505.973501 L469.663835,513.575188 L461.714451,513.575188 L464.305098,505.930915 C464.725044,504.594173 465.095699,503.227856 465.408851,501.926439 L465.589776,501.154132 L465.710436,501.154132 Z M552.923702,507.579721 C556.678209,507.579721 557.657357,510.877618 557.665846,513.034597 L557.664942,513.179843 L547.635942,513.179843 C547.91275,510.795001 549.396162,507.579721 552.923702,507.579721 Z M527.038518,507.579721 C530.793025,507.579721 531.772174,510.877618 531.780663,513.034597 L531.779758,513.179843 L521.750758,513.179843 C522.027567,510.795001 523.510979,507.579721 527.038518,507.579721 Z M193.85426,507.579721 C197.608767,507.579721 198.587915,510.877618 198.596404,513.034597 L198.5955,513.179843 L188.566499,513.179843 C188.843308,510.795001 190.32672,507.579721 193.85426,507.579721 Z M48.9135569,500.644513 C52.6753192,500.644513 55.1382089,502.333777 55.1382089,505.854259 C55.1382089,509.417328 52.6753192,511.461479 48.5231853,511.461479 C47.5452848,511.461479 46.6627209,511.394182 45.9552521,511.244633 L45.6983147,511.184667 L45.6983147,500.921325 C46.2874209,500.800664 47.4230473,500.644513 48.9135569,500.644513 Z M164.708409,497.672687 C163.374048,497.672687 162.472645,498.652176 162.472645,499.865891 C162.472645,501.026835 163.2649,502.005948 164.464294,502.088894 L164.630335,502.094583 L164.665823,502.094583 C166.04277,502.094583 166.901587,501.079605 166.901587,499.865891 C166.901587,498.652176 166.04277,497.672687 164.708409,497.672687 Z M91.2049925,497.672687 C89.8777292,497.672687 88.9763258,498.652176 88.9763258,499.865891 C88.9763258,501.026835 89.7620869,502.005948 90.9609161,502.088894 L91.1269182,502.094583 L91.1695042,502.094583 C92.5393535,502.094583 93.3981709,501.079605 93.3981709,499.865891 C93.3981709,498.652176 92.5393535,497.672687 91.2049925,497.672687 Z M325.044657,497.672687 C323.710296,497.672687 322.808892,498.652176 322.808892,499.865891 C322.808892,501.026835 323.594653,502.005948 324.799694,502.088894 L324.966582,502.094583 L325.002071,502.094583 C326.37192,502.094583 327.237835,501.079605 327.237835,499.865891 C327.237835,498.652176 326.37192,497.672687 325.044657,497.672687 Z M574.768895,476.202004 L41.7839526,476.202004 L41.7839526,477.018245 L574.768895,477.018245 L574.768895,476.202004 Z M240.653422,412.961083 C230.347613,412.961083 223.945519,421.904244 223.945519,432.806382 C223.945519,443.254265 229.68753,453.113035 242.48462,453.113035 C246.767693,453.113035 251.599946,451.756614 255.339545,449.18432 L255.73596,448.904071 L253.57827,443.445904 C250.575958,445.156461 247.374911,446.07207 243.982227,446.07207 C237.241699,446.07207 232.831501,441.555715 232.571422,435.411699 L232.562084,435.11315 L257.04193,435.11315 L257.04193,432.735405 C257.04193,420.853777 250.774692,412.961083 240.653422,412.961083 Z M569.346279,394.897319 L560.992327,394.897319 L560.992327,445.021604 C560.992327,449.620944 563.206799,453.113035 568.955907,453.113035 C570.979994,453.113035 572.947496,452.698074 575.183869,451.607787 L575.606419,451.39538 L574.57016,445.156461 C573.462924,445.482957 572.675083,445.482957 572.085977,445.482957 C570.058884,445.482957 569.384762,444.551942 569.347896,441.668376 L569.346279,441.408851 L569.346279,394.897319 Z M490.115047,412.961083 C484.884068,412.961083 480.384148,414.934257 477.183101,418.348273 C473.733636,421.904244 471.703704,427.156576 471.703704,433.196758 C471.703704,439.371798 473.733636,444.829965 477.381836,448.378838 C480.582883,451.466358 484.884068,453.113035 490.115047,453.113035 C495.530565,453.113035 500.030484,451.132764 503.29541,447.782627 C506.822949,444.240852 508.710928,438.981422 508.710928,433.005119 C508.710928,427.085599 506.879731,421.904244 503.494145,418.41925 C500.293098,414.934257 495.658323,412.961083 490.115047,412.961083 Z M311.857195,412.961083 C302.921235,412.961083 298.094823,417.702378 298.094823,423.941297 C298.094823,437.206985 315.583469,434.318202 315.583469,441.934084 C315.583469,444.900942 312.779892,446.604401 308.599367,446.604401 C304.759784,446.604401 301.349184,445.258038 298.883054,443.628119 L298.612953,443.445904 L295.809375,449.684823 C298.811688,451.601215 302.921235,453.113035 308.989739,453.113035 C316.960416,453.113035 324.0013,449.755801 324.0013,441.352069 C324.0013,428.405779 306.25004,430.378953 306.25004,423.536725 C306.25004,420.853777 308.727125,419.732333 312.190786,419.732333 C316.121658,419.732333 319.221311,420.75838 322.110901,421.934636 L322.503693,422.095883 L322.503693,415.005234 C319.693017,413.88379 316.499068,412.961083 311.857195,412.961083 Z M93.3484873,413.94767 L84.9945358,413.94767 L84.9945358,438.654925 C84.9945358,450.479771 92.4328885,453.113035 97.4580352,453.113035 C102.335383,453.113035 106.417063,450.939964 109.093047,448.657551 L109.332428,448.449815 L110.901012,452.254207 L117.828333,452.254207 C117.254211,450.545491 117.114477,447.98115 117.104914,440.644328 L117.104371,413.94767 L108.75042,413.94767 L108.75042,442.395438 C107.054078,444.105995 104.044668,446.206927 100.460347,446.206927 C95.8538238,446.206927 93.4440015,443.553118 93.3512697,438.439462 L93.3484873,438.129692 L93.3484873,413.94767 Z M533.836662,412.961083 C528.619878,412.961083 524.112861,414.934257 520.918912,418.348273 C517.455251,421.904244 515.439515,427.156576 515.439515,433.196758 C515.439515,439.371798 517.455251,444.829965 521.117646,448.378838 C524.247717,451.466358 528.619878,453.113035 533.836662,453.113035 C539.25218,453.113035 543.759197,451.132764 547.024123,447.782627 C550.480686,444.240852 552.439641,438.981422 552.439641,433.005119 C552.439641,427.085599 550.544565,421.904244 547.222857,418.41925 C543.950834,414.934257 539.387036,412.961083 533.836662,412.961083 Z M411.075452,412.961083 C399.25784,412.961083 391.620752,422.032003 391.620752,433.395495 C391.620752,443.971137 397.824111,453.113035 409.968216,453.113035 C415.026915,453.113035 419.718543,451.250962 422.735801,449.228912 L423.013724,449.038928 L420.728276,443.445904 C418.187312,444.957724 415.312757,446.206927 411.529702,446.206927 C403.892615,446.206927 399.974704,440.166745 399.974704,433.005119 C399.974704,425.31826 404.673358,419.796213 411.721339,419.796213 C415.488561,419.796213 418.52738,420.826489 421.077568,422.546307 L421.381261,422.755973 L421.44514,415.594347 C419.10291,414.217384 415.63925,412.961083 411.075452,412.961083 Z M140.988013,412.961083 C131.981077,412.961083 127.154665,417.702378 127.154665,423.941297 C127.154665,437.206985 144.643311,434.318202 144.643311,441.934084 C144.643311,444.900942 141.839733,446.604401 137.666306,446.604401 C133.826723,446.604401 130.409523,445.258038 127.942922,443.628119 L127.672794,443.445904 L124.869217,449.684823 C127.942505,451.601215 131.981077,453.113035 138.056678,453.113035 C146.020258,453.113035 153.061141,449.755801 153.061141,441.352069 C153.061141,428.405779 135.309882,430.378953 135.309882,423.536725 C135.309882,420.853777 137.794064,419.732333 141.250627,419.732333 C145.188288,419.732333 148.281743,420.75838 151.170781,421.934636 L151.563534,422.095883 L151.563534,415.005234 C148.759956,413.88379 145.558909,412.961083 140.988013,412.961083 Z M278.583343,412.961083 C269.633188,412.961083 264.806776,417.702378 264.806776,423.941297 C264.806776,437.206985 282.231543,434.318202 282.231543,441.934084 C282.231543,444.900942 279.427965,446.604401 275.24744,446.604401 C271.407857,446.604401 267.997257,445.258038 265.531128,443.628119 L265.261026,443.445904 L262.457449,449.684823 C265.52364,451.601215 269.633188,453.113035 275.637812,453.113035 C283.601392,453.113035 290.72035,449.755801 290.72035,441.352069 C290.72035,428.405779 272.898113,430.378953 272.898113,423.536725 C272.898113,420.853777 275.446175,419.732333 278.838859,419.732333 C282.769731,419.732333 285.927829,420.75838 288.766598,421.934636 L289.151766,422.095883 L289.151766,415.005234 C286.341091,413.88379 283.147141,412.961083 278.583343,412.961083 Z M369.688968,398.446192 C358.98569,398.446192 353.044944,404.883848 353.044944,412.641685 C353.044944,416.779671 354.478672,419.796213 356.636363,422.23074 C363.095238,429.392366 375.892327,431.031946 375.892327,439.251136 C375.892327,444.105995 370.803301,446.008191 366.487921,446.008191 C361.626686,446.008191 357.551448,444.043175 354.92685,442.242605 L354.677407,442.068941 L351.093086,448.449815 C354.478672,450.60753 359.447038,453.113035 366.814414,453.113035 C376.999563,453.113035 384.892166,447.257394 384.892166,438.264549 C384.892166,421.904244 361.725388,422.23074 361.725388,411.655098 C361.725388,407.446134 365.515541,405.543938 370.086437,405.543938 C374.296667,405.543938 378.263376,406.945845 381.752062,409.039809 L382.152467,409.284451 L382.223444,401.334975 C379.483746,399.830252 375.303221,398.446192 369.688968,398.446192 Z M203.979788,412.961083 C198.914206,412.961083 194.956512,414.883223 190.85118,417.931466 L190.465835,418.220513 L189.486357,413.94767 L182.502255,413.94767 L182.502255,452.254207 L190.856206,452.254207 L190.856206,425.119523 C193.858518,422.755973 197.442839,420.520183 201.232992,420.520183 C206.295495,420.520183 207.14475,425.021216 207.172991,429.103143 L207.173737,429.321389 L207.173737,452.254207 L215.591568,452.254207 L215.591568,426.695223 C215.591568,416.708693 209.586944,412.961083 203.979788,412.961083 Z M438.614391,394.897319 L430.260439,394.897319 L430.260439,452.254207 L438.614391,452.254207 L438.614391,425.31826 C441.354089,422.947612 444.881629,420.520183 448.664684,420.520183 C453.859677,420.520183 454.766063,424.836242 454.796267,429.160715 L454.797067,429.392366 L454.797067,452.254207 L463.158116,452.254207 L463.158116,427.085599 C463.158116,416.055701 457.146394,412.961083 451.475359,412.961083 C446.471721,412.961083 442.636036,415.130165 438.958707,417.953915 L438.614391,418.220513 L438.614391,394.897319 Z M58.1653629,398.900447 L42.1104452,398.900447 L42.1104452,452.254207 L57.7111124,452.254207 C71.2889451,452.254207 76.3779708,443.843378 76.3779708,436.419135 C76.3779708,429.825449 71.9607072,424.829953 66.4773759,423.475753 L66.1928218,423.408966 L66.1928218,423.345086 C70.6288623,421.315131 72.985287,416.97131 72.985287,411.981594 C72.985287,405.671698 68.3505119,398.900447 58.1653629,398.900447 Z M170.890475,413.954768 L162.536524,413.954768 L162.536524,452.254207 L170.890475,452.254207 L170.890475,413.954768 Z M490.74998,418.425287 C497.539987,418.425287 501.528736,424.032085 501.528736,432.612989 C501.528736,440.898 497.821636,446.793103 490.96312,446.793103 C484.310131,446.793103 480.252874,441.102849 480.252874,432.612989 C480.252874,424.176238 483.815343,418.425287 490.74998,418.425287 Z M534.301705,418.425287 C541.091711,418.425287 545.08046,424.032085 545.08046,432.612989 C545.08046,440.898 541.37336,446.793103 534.446335,446.793103 C527.793346,446.793103 523.804598,441.102849 523.804598,432.612989 C523.804598,424.176238 527.37468,418.425287 534.301705,418.425287 Z M57.7125319,428.662008 C63.9087933,428.662008 67.5640906,431.955362 67.5640906,436.476627 C67.5640906,441.455509 64.2277469,444.831284 57.6762106,444.9482 L57.3221604,444.951336 L50.5296952,444.951336 L50.5296952,428.662008 L57.7125319,428.662008 Z M240.460366,419.533596 C245.651985,419.533596 248.195783,424.227204 248.353744,428.616529 L248.360067,428.860035 L232.496786,428.860035 C232.496786,424.061959 235.499098,419.533596 240.460366,419.533596 Z M55.9452134,406.264359 C61.6943219,406.264359 64.3701415,409.146044 64.3701415,413.624722 C64.3701415,418.386218 60.6629162,421.263357 56.76387,421.372255 L56.5343196,421.375462 L50.5296952,421.375462 L50.5296952,406.264359 L55.9452134,406.264359 Z M166.709951,396.806612 C163.636662,396.806612 161.287335,399.099184 161.287335,402.058945 C161.287335,404.954825 163.636662,407.311277 166.709951,407.311277 C169.712263,407.311277 172.06159,404.883848 172.06159,402.058945 C172.06159,399.035305 169.712263,396.806612 166.709951,396.806612 Z M508.384436,148.293216 C464.002738,148.293216 429.082227,184.356866 429.082227,229.101059 C429.082227,273.774276 463.02326,308.269323 504.409743,308.269323 C517.366068,308.269323 530.077865,305.002129 540.153019,301.663909 L540.820764,301.441291 L540.820764,308.602917 C540.820764,326.6099 525.092339,339.939468 507.802427,339.939468 C488.347728,339.939468 483.059968,337.781753 470.46871,337.781753 C457.472886,337.781753 447.94782,345.858988 443.902151,359.195654 C459.630576,365.100979 484.628552,371.943207 511.77712,371.943207 C548.154284,371.943207 574.235945,343.929376 574.753941,307.226458 L574.761797,306.111608 L574.761797,186.528776 C574.761797,166.619598 563.015162,157.357039 548.202335,152.693819 C537.42808,149.272705 523.850247,148.293216 508.384436,148.293216 Z M178.910836,148.293216 C162.27391,148.293216 145.629886,152.040826 134.791752,156.107835 C121.356724,161.314671 108.547774,168.64324 108.292939,185.428128 L108.289072,185.939663 L108.289072,371.346996 L111.035868,371.346996 C128.159907,371.346996 141.95182,357.628775 142.225946,340.460756 L142.230105,339.939468 L142.230105,306.693624 C151.435776,308.602917 162.600403,309.845023 174.609651,309.845023 C219.055228,309.845023 253.904762,273.774276 253.904762,229.101059 C253.904762,184.356866 219.970827,148.293216 178.910836,148.293216 Z M344.172863,148.293216 C316.960416,148.293216 291.955343,155.128346 276.226918,161.040769 C280.272587,174.441314 289.804751,182.45467 302.793477,182.45467 C315.455711,182.45467 320.679593,180.282759 340.120097,180.282759 C357.244136,180.282759 372.837762,193.42359 373.147922,211.151677 L373.152629,211.690287 L323.48317,211.690287 C290.131244,211.690287 268.199459,233.437783 268.199459,260.771204 C268.199459,288.097528 288.56266,309.845023 325.960255,309.845023 C352.789428,309.845023 369.752847,307.353714 380.527102,303.606104 C395.1918,298.729526 406.851325,289.790352 407.083049,270.363069 L407.086564,269.771147 L407.086564,214.188694 C407.086564,176.875841 380.853595,148.293216 344.172863,148.293216 Z M78.4646842,85.6130175 L72.5949154,85.6130175 C55.4708764,85.6130175 41.6720068,99.2686295 41.3977418,116.42851 L41.393581,116.949568 L41.393581,306.693624 L78.4646842,306.693624 L78.4646842,85.6130175 Z M373.14908,240.267234 L373.14908,273.513078 C364.206022,275.684989 352.459387,278.438915 330.854095,278.438915 C311.14388,278.438915 303.379035,267.863272 303.379035,258.600713 C303.379035,249.368481 310.667877,240.449227 325.755032,240.269982 L326.21932,240.267234 L373.14908,240.267234 Z M509.297195,180.025111 C525.514792,180.025111 540.521971,183.051189 540.820492,183.111711 L540.825022,183.112631 L540.825022,270.691724 C540.825022,270.691724 523.528013,276.930643 506.231004,276.930643 C484.043704,276.930643 464.262512,255.183148 464.262512,229.09893 C464.262512,203.014712 484.363099,180.025111 509.297195,180.025111 Z M176.754566,180.022982 C199.012843,180.022982 218.730155,203.01968 218.730155,229.096801 C218.730155,255.181019 198.693448,276.928514 173.688375,276.928514 C157.477805,276.928514 142.533304,275.384171 142.236035,275.353284 L142.231524,275.352814 L142.231524,187.447225 C142.231524,187.447225 159.528533,180.022982 176.754566,180.022982 Z" id="Combined-Shape" fill="#61C2D8"></path>
    </g>
</svg>